<svg width="164" height="34" viewBox="0 0 164 34" fill="none" xmlns="http://www.w3.org/2000/svg">
<path d="M55.508 20.598H48.158L46.709 24H43.895L50.51 9.3H53.198L59.834 24H56.978L55.508 20.598ZM54.605 18.456L51.833 12.03L49.082 18.456H54.605ZM72.332 8.418V24H69.812V22.551C69.378 23.083 68.839 23.482 68.195 23.748C67.565 24.014 66.865 24.147 66.095 24.147C65.017 24.147 64.044 23.909 63.176 23.433C62.322 22.957 61.65 22.285 61.16 21.417C60.67 20.535 60.425 19.527 60.425 18.393C60.425 17.259 60.67 16.258 61.16 15.39C61.65 14.522 62.322 13.85 63.176 13.374C64.044 12.898 65.017 12.66 66.095 12.66C66.837 12.66 67.516 12.786 68.132 13.038C68.748 13.29 69.273 13.668 69.707 14.172V8.418H72.332ZM66.41 21.9C67.04 21.9 67.607 21.76 68.111 21.48C68.615 21.186 69.014 20.773 69.308 20.241C69.602 19.709 69.749 19.093 69.749 18.393C69.749 17.693 69.602 17.077 69.308 16.545C69.014 16.013 68.615 15.607 68.111 15.327C67.607 15.033 67.04 14.886 66.41 14.886C65.78 14.886 65.213 15.033 64.709 15.327C64.205 15.607 63.806 16.013 63.512 16.545C63.218 17.077 63.071 17.693 63.071 18.393C63.071 19.093 63.218 19.709 63.512 20.241C63.806 20.773 64.205 21.186 64.709 21.48C65.213 21.76 65.78 21.9 66.41 21.9ZM86.7489 8.418V24H84.2289V22.551C83.7949 23.083 83.2559 23.482 82.6119 23.748C81.9819 24.014 81.2819 24.147 80.5119 24.147C79.4339 24.147 78.4609 23.909 77.5929 23.433C76.7389 22.957 76.0669 22.285 75.5769 21.417C75.0869 20.535 74.8419 19.527 74.8419 18.393C74.8419 17.259 75.0869 16.258 75.5769 15.39C76.0669 14.522 76.7389 13.85 77.5929 13.374C78.4609 12.898 79.4339 12.66 80.5119 12.66C81.2539 12.66 81.9329 12.786 82.5489 13.038C83.1649 13.29 83.6899 13.668 84.1239 14.172V8.418H86.7489ZM80.8269 21.9C81.4569 21.9 82.0239 21.76 82.5279 21.48C83.0319 21.186 83.4309 20.773 83.7249 20.241C84.0189 19.709 84.1659 19.093 84.1659 18.393C84.1659 17.693 84.0189 17.077 83.7249 16.545C83.4309 16.013 83.0319 15.607 82.5279 15.327C82.0239 15.033 81.4569 14.886 80.8269 14.886C80.1969 14.886 79.6299 15.033 79.1259 15.327C78.6219 15.607 78.2229 16.013 77.9289 16.545C77.6349 17.077 77.4879 17.693 77.4879 18.393C77.4879 19.093 77.6349 19.709 77.9289 20.241C78.2229 20.773 78.6219 21.186 79.1259 21.48C79.6299 21.76 80.1969 21.9 80.8269 21.9ZM110.141 12.66C111.555 12.66 112.675 13.073 113.501 13.899C114.327 14.711 114.74 15.936 114.74 17.574V24H112.115V17.91C112.115 16.93 111.898 16.195 111.464 15.705C111.03 15.201 110.407 14.949 109.595 14.949C108.713 14.949 108.006 15.243 107.474 15.831C106.942 16.405 106.676 17.231 106.676 18.309V24H104.051V17.91C104.051 16.93 103.834 16.195 103.4 15.705C102.966 15.201 102.343 14.949 101.531 14.949C100.635 14.949 99.9206 15.236 99.3886 15.81C98.8706 16.384 98.6116 17.217 98.6116 18.309V24H95.9866V12.786H98.4856V14.214C98.9056 13.71 99.4306 13.325 100.061 13.059C100.691 12.793 101.391 12.66 102.161 12.66C103.001 12.66 103.743 12.821 104.387 13.143C105.045 13.451 105.563 13.913 105.941 14.529C106.403 13.941 106.998 13.486 107.726 13.164C108.454 12.828 109.259 12.66 110.141 12.66ZM123.237 24.147C122.103 24.147 121.081 23.902 120.171 23.412C119.261 22.922 118.547 22.243 118.029 21.375C117.525 20.493 117.273 19.499 117.273 18.393C117.273 17.287 117.525 16.3 118.029 15.432C118.547 14.564 119.261 13.885 120.171 13.395C121.081 12.905 122.103 12.66 123.237 12.66C124.385 12.66 125.414 12.905 126.324 13.395C127.234 13.885 127.941 14.564 128.445 15.432C128.963 16.3 129.222 17.287 129.222 18.393C129.222 19.499 128.963 20.493 128.445 21.375C127.941 22.243 127.234 22.922 126.324 23.412C125.414 23.902 124.385 24.147 123.237 24.147ZM123.237 21.9C124.203 21.9 125.001 21.578 125.631 20.934C126.261 20.29 126.576 19.443 126.576 18.393C126.576 17.343 126.261 16.496 125.631 15.852C125.001 15.208 124.203 14.886 123.237 14.886C122.271 14.886 121.473 15.208 120.843 15.852C120.227 16.496 119.919 17.343 119.919 18.393C119.919 19.443 120.227 20.29 120.843 20.934C121.473 21.578 122.271 21.9 123.237 21.9ZM142.715 8.418V24H140.195V22.551C139.761 23.083 139.222 23.482 138.578 23.748C137.948 24.014 137.248 24.147 136.478 24.147C135.4 24.147 134.427 23.909 133.559 23.433C132.705 22.957 132.033 22.285 131.543 21.417C131.053 20.535 130.808 19.527 130.808 18.393C130.808 17.259 131.053 16.258 131.543 15.39C132.033 14.522 132.705 13.85 133.559 13.374C134.427 12.898 135.4 12.66 136.478 12.66C137.22 12.66 137.899 12.786 138.515 13.038C139.131 13.29 139.656 13.668 140.09 14.172V8.418H142.715ZM136.793 21.9C137.423 21.9 137.99 21.76 138.494 21.48C138.998 21.186 139.397 20.773 139.691 20.241C139.985 19.709 140.132 19.093 140.132 18.393C140.132 17.693 139.985 17.077 139.691 16.545C139.397 16.013 138.998 15.607 138.494 15.327C137.99 15.033 137.423 14.886 136.793 14.886C136.163 14.886 135.596 15.033 135.092 15.327C134.588 15.607 134.189 16.013 133.895 16.545C133.601 17.077 133.454 17.693 133.454 18.393C133.454 19.093 133.601 19.709 133.895 20.241C134.189 20.773 134.588 21.186 135.092 21.48C135.596 21.76 136.163 21.9 136.793 21.9ZM156.691 18.456C156.691 18.638 156.677 18.897 156.649 19.233H147.85C148.004 20.059 148.403 20.717 149.047 21.207C149.705 21.683 150.517 21.921 151.483 21.921C152.715 21.921 153.73 21.515 154.528 20.703L155.935 22.32C155.431 22.922 154.794 23.377 154.024 23.685C153.254 23.993 152.386 24.147 151.42 24.147C150.188 24.147 149.103 23.902 148.165 23.412C147.227 22.922 146.499 22.243 145.981 21.375C145.477 20.493 145.225 19.499 145.225 18.393C145.225 17.301 145.47 16.321 145.96 15.453C146.464 14.571 147.157 13.885 148.039 13.395C148.921 12.905 149.915 12.66 151.021 12.66C152.113 12.66 153.086 12.905 153.94 13.395C154.808 13.871 155.48 14.55 155.956 15.432C156.446 16.3 156.691 17.308 156.691 18.456ZM151.021 14.76C150.181 14.76 149.467 15.012 148.879 15.516C148.305 16.006 147.955 16.664 147.829 17.49H154.192C154.08 16.678 153.737 16.02 153.163 15.516C152.589 15.012 151.875 14.76 151.021 14.76ZM159.212 8.418H161.837V24H159.212V8.418Z" fill="#373737"/>
<circle cx="17" cy="17" r="16" stroke="#373737" stroke-width="2"/>
<path d="M22.676 18.2H18.074V22.75H15.292V18.2H10.69V15.6H15.292V11.05H18.074V15.6H22.676V18.2Z" fill="#373737"/>
</svg>
