<svg width="20" height="20" viewBox="0 0 20 20" fill="none" xmlns="http://www.w3.org/2000/svg">
<g id="carbon:phone">
<path id="Vector" d="M16.2501 18.125H16.1438C3.86259 17.4187 2.11884 7.05625 1.87509 3.89375C1.85545 3.64786 1.88452 3.40052 1.96064 3.16588C2.03676 2.93125 2.15842 2.71394 2.31867 2.52641C2.47891 2.33888 2.67458 2.1848 2.89448 2.07302C3.11437 1.96124 3.35415 1.89395 3.60009 1.875H7.04384C7.29419 1.87476 7.53885 1.94969 7.74611 2.0901C7.95338 2.23051 8.11371 2.42992 8.20634 2.6625L9.15634 5C9.24781 5.22722 9.27051 5.4763 9.22162 5.71631C9.17273 5.95631 9.05441 6.17667 8.88134 6.35L7.55009 7.69375C7.75804 8.87547 8.32396 9.96479 9.17128 10.8143C10.0186 11.6639 11.1064 12.2327 12.2876 12.4438L13.6438 11.1C13.8198 10.9288 14.0422 10.8133 14.2834 10.7677C14.5246 10.7221 14.7738 10.7486 15.0001 10.8438L17.3563 11.7875C17.5854 11.8831 17.7809 12.0446 17.9178 12.2517C18.0547 12.4587 18.1268 12.7018 18.1251 12.95V16.25C18.1251 16.7473 17.9275 17.2242 17.5759 17.5758C17.2243 17.9275 16.7474 18.125 16.2501 18.125ZM3.75009 3.125C3.58433 3.125 3.42536 3.19085 3.30815 3.30806C3.19094 3.42527 3.12509 3.58424 3.12509 3.75V3.8C3.41259 7.5 5.25634 16.25 16.2126 16.875C16.2947 16.8801 16.377 16.8689 16.4548 16.8421C16.5326 16.8153 16.6043 16.7734 16.6658 16.7188C16.7274 16.6642 16.7775 16.598 16.8135 16.524C16.8494 16.45 16.8703 16.3696 16.8751 16.2875V12.95L14.5188 12.0062L12.7251 13.7875L12.4251 13.75C6.98759 13.0688 6.25009 7.63125 6.25009 7.575L6.21259 7.275L7.98759 5.48125L7.05009 3.125H3.75009Z" fill="#373737" fill-opacity="0.7"/>
</g>
</svg>
