<svg width="161" height="46" viewBox="0 0 161 46" fill="none" xmlns="http://www.w3.org/2000/svg">
<circle cx="23" cy="23" r="23" fill="#039600"/>
<circle cx="80.5" cy="23" r="23" fill="#BC0000"/>
<circle cx="138" cy="23" r="23" fill="#FFC700"/>
<path d="M91.3743 20.8771C91.5158 21.6349 91.5928 22.4273 91.5928 23.2541C91.5928 29.7218 87.2642 34.3206 80.7265 34.3206C79.2397 34.3211 77.7674 34.0285 76.3937 33.4598C75.0201 32.891 73.7719 32.0572 72.7206 31.0059C71.6693 29.9546 70.8354 28.7064 70.2667 27.3327C69.6979 25.9591 69.4054 24.4868 69.4059 23C69.4054 21.5132 69.6979 20.0409 70.2667 18.6673C70.8354 17.2936 71.6693 16.0454 72.7206 14.9941C73.7719 13.9428 75.0201 13.109 76.3937 12.5402C77.7674 11.9715 79.2397 11.6789 80.7265 11.6794C83.7832 11.6794 86.3373 12.8041 88.2969 14.6303L85.1057 17.8215V17.8135C83.9177 16.6819 82.4101 16.1011 80.7265 16.1011C76.9913 16.1011 73.9553 19.2567 73.9553 22.9931C73.9553 26.7283 76.9913 29.8908 80.7265 29.8908C84.1155 29.8908 86.4224 27.9531 86.8962 25.2919H80.7265V20.8771H91.3755H91.3743Z" fill="white"/>
<path d="M138 10.925C145.78 10.925 152.087 15.8409 152.087 21.9065C152.087 27.9709 145.78 32.8867 138 32.8867C137.225 32.8872 136.451 32.8379 135.683 32.7392L129.769 36.6072C129.097 36.9627 128.859 36.9238 129.136 36.0531L130.332 31.1184C126.468 29.1596 123.912 25.7652 123.912 21.9065C123.912 15.8422 130.22 10.925 138 10.925ZM145.925 21.7388L147.897 19.8283C148.011 19.7101 148.075 19.5524 148.075 19.3883C148.074 19.2242 148.01 19.0666 147.896 18.9487C147.782 18.8308 147.627 18.7618 147.463 18.7562C147.299 18.7506 147.139 18.8088 147.017 18.9187L144.431 21.4222V19.3534C144.431 19.1854 144.364 19.0243 144.245 18.9056C144.126 18.7868 143.965 18.7201 143.797 18.7201C143.629 18.7201 143.468 18.7868 143.35 18.9056C143.231 19.0243 143.164 19.1854 143.164 19.3534V22.784C143.14 22.8819 143.14 22.984 143.164 23.0818V25.0125C143.164 25.1805 143.231 25.3415 143.35 25.4603C143.468 25.5791 143.629 25.6458 143.797 25.6458C143.965 25.6458 144.126 25.5791 144.245 25.4603C144.364 25.3415 144.431 25.1805 144.431 25.0125V23.1838L145.003 22.6297L146.919 25.3573C146.967 25.4254 147.028 25.4834 147.098 25.528C147.168 25.5726 147.247 25.603 147.329 25.6173C147.411 25.6316 147.495 25.6297 147.576 25.6115C147.657 25.5934 147.734 25.5594 147.802 25.5116C147.87 25.4638 147.928 25.403 147.973 25.3327C148.018 25.2625 148.048 25.1841 148.062 25.1022C148.077 25.0202 148.075 24.9362 148.056 24.855C148.038 24.7737 148.004 24.6969 147.956 24.6288L145.925 21.7375V21.7388ZM141.957 24.3202H139.998V19.3735C139.99 19.2107 139.92 19.0572 139.802 18.9446C139.685 18.8321 139.528 18.7694 139.365 18.7694C139.202 18.7694 139.046 18.8321 138.928 18.9446C138.81 19.0572 138.74 19.2107 138.733 19.3735V24.9535C138.733 25.3023 139.014 25.5867 139.364 25.5867H141.957C142.125 25.5867 142.286 25.52 142.404 25.4013C142.523 25.2825 142.59 25.1214 142.59 24.9535C142.59 24.7855 142.523 24.6244 142.404 24.5057C142.286 24.3869 142.125 24.3202 141.957 24.3202ZM134.098 22.8551L135.032 20.5649L135.888 22.8551H134.098ZM137.483 23.5098L137.486 23.4884C137.486 23.3288 137.425 23.1754 137.316 23.059L135.912 19.3024C135.854 19.1234 135.741 18.9665 135.591 18.8529C135.441 18.7393 135.259 18.6742 135.071 18.6664C134.881 18.6656 134.696 18.7225 134.54 18.8297C134.383 18.9368 134.263 19.089 134.195 19.2661L131.966 24.7334C131.935 24.8104 131.919 24.8929 131.919 24.976C131.92 25.0592 131.937 25.1415 131.969 25.2182C132.001 25.2948 132.048 25.3644 132.107 25.423C132.166 25.4815 132.236 25.5278 132.313 25.5592C132.39 25.5907 132.473 25.6067 132.556 25.6063C132.639 25.6058 132.721 25.5891 132.798 25.5569C132.875 25.5246 132.944 25.4777 133.003 25.4186C133.061 25.3595 133.108 25.2894 133.139 25.2124L133.582 24.1216H136.359L136.76 25.195C136.788 25.2752 136.831 25.3491 136.887 25.4124C136.943 25.4757 137.012 25.527 137.088 25.5633C137.165 25.5996 137.248 25.6202 137.333 25.6238C137.417 25.6275 137.502 25.6141 137.581 25.5844C137.661 25.5548 137.733 25.5095 137.795 25.4513C137.856 25.3931 137.906 25.3231 137.94 25.2455C137.974 25.1679 137.992 25.0843 137.993 24.9995C137.994 24.9148 137.978 24.8307 137.946 24.7522L137.483 23.5098ZM133.026 19.3802C133.026 19.2125 132.96 19.0516 132.841 18.9329C132.723 18.8142 132.562 18.7473 132.394 18.7469H128.041C127.873 18.7469 127.712 18.8136 127.593 18.9324C127.474 19.0512 127.408 19.2122 127.408 19.3802C127.408 19.5481 127.474 19.7092 127.593 19.828C127.712 19.9467 127.873 20.0135 128.041 20.0135H129.597V25.0259C129.597 25.1939 129.664 25.3549 129.783 25.4737C129.901 25.5925 130.062 25.6592 130.23 25.6592C130.398 25.6592 130.559 25.5925 130.678 25.4737C130.797 25.3549 130.864 25.1939 130.864 25.0259V20.0135H132.393C132.561 20.0135 132.722 19.9467 132.841 19.828C132.96 19.7092 133.026 19.5481 133.026 19.3802Z" fill="black"/>
<g clip-path="url(#clip0_144_1122)">
<path d="M12.65 13.8V32.0985H19.8581V22.9436L26.1304 32.0985H33.35V13.8H26.1304V22.9436L19.8581 13.8H12.65Z" fill="white"/>
</g>
<defs>
<clipPath id="clip0_144_1122">
<rect width="20.7" height="18.4" fill="white" transform="translate(12.65 13.8)"/>
</clipPath>
</defs>
</svg>
