<svg width="22" height="22" viewBox="0 0 22 22" fill="none" xmlns="http://www.w3.org/2000/svg">
<g id="heroicons-solid:x">
<g id="Group">
<path id="Vector" fill-rule="evenodd" clip-rule="evenodd" d="M4.72233 4.72229C4.92861 4.51607 5.20835 4.40023 5.50003 4.40023C5.79171 4.40023 6.07145 4.51607 6.27773 4.72229L11 9.44459L15.7223 4.72229C15.8238 4.61723 15.9452 4.53343 16.0794 4.47578C16.2136 4.41813 16.3579 4.38779 16.504 4.38652C16.6501 4.38525 16.7949 4.41308 16.9301 4.46839C17.0653 4.5237 17.1881 4.60537 17.2914 4.70866C17.3946 4.81194 17.4763 4.93476 17.5316 5.06994C17.5869 5.20513 17.6148 5.34998 17.6135 5.49603C17.6122 5.64209 17.5819 5.78643 17.5242 5.92064C17.4666 6.05484 17.3828 6.17622 17.2777 6.27769L12.5554 11L17.2777 15.7223C17.4781 15.9298 17.589 16.2076 17.5865 16.496C17.584 16.7844 17.4683 17.0603 17.2643 17.2643C17.0604 17.4682 16.7845 17.5839 16.4961 17.5864C16.2077 17.5889 15.9298 17.4781 15.7223 17.2777L11 12.5554L6.27773 17.2777C6.07027 17.4781 5.79241 17.5889 5.50399 17.5864C5.21558 17.5839 4.93968 17.4682 4.73573 17.2643C4.53178 17.0603 4.4161 16.7844 4.41359 16.496C4.41109 16.2076 4.52196 15.9298 4.72233 15.7223L9.44463 11L4.72233 6.27769C4.51612 6.07141 4.40027 5.79167 4.40027 5.49999C4.40027 5.20831 4.51612 4.92857 4.72233 4.72229Z" fill="#373737"/>
</g>
</g>
</svg>
