<svg width="21" height="22" viewBox="0 0 21 22" fill="none" xmlns="http://www.w3.org/2000/svg">
<path id="Vector" d="M10.4639 7.60483C8.59624 7.60483 7.07206 9.19254 7.07206 11.1381C7.07206 13.0836 8.59624 14.6713 10.4639 14.6713C12.3316 14.6713 13.8558 13.0836 13.8558 11.1381C13.8558 9.19254 12.3316 7.60483 10.4639 7.60483ZM20.6369 11.1381C20.6369 9.67495 20.6497 8.22507 20.5708 6.76459C20.4919 5.06821 20.1204 3.56267 18.9296 2.32219C17.7362 1.07906 16.2934 0.694719 14.6649 0.612551C13.2604 0.530382 11.8685 0.543635 10.4665 0.543635C9.06188 0.543635 7.67003 0.530382 6.26799 0.612551C4.63949 0.694719 3.1942 1.08171 2.00336 2.32219C0.809979 3.56532 0.441022 5.06821 0.362142 6.76459C0.283261 8.22773 0.295984 9.6776 0.295984 11.1381C0.295984 12.5986 0.283261 14.0511 0.362142 15.5116C0.441022 17.208 0.812523 18.7135 2.00336 19.954C3.19675 21.1971 4.63949 21.5814 6.26799 21.6636C7.67257 21.7458 9.06443 21.7325 10.4665 21.7325C11.871 21.7325 13.2629 21.7458 14.6649 21.6636C16.2934 21.5814 17.7387 21.1945 18.9296 19.954C20.123 18.7108 20.4919 17.208 20.5708 15.5116C20.6522 14.0511 20.6369 12.6012 20.6369 11.1381ZM10.4639 16.5745C7.57588 16.5745 5.24509 14.1465 5.24509 11.1381C5.24509 8.12965 7.57588 5.7017 10.4639 5.7017C13.352 5.7017 15.6828 8.12965 15.6828 11.1381C15.6828 14.1465 13.352 16.5745 10.4639 16.5745ZM15.8965 6.74869C15.2222 6.74869 14.6777 6.18146 14.6777 5.47905C14.6777 4.77664 15.2222 4.20942 15.8965 4.20942C16.5708 4.20942 17.1153 4.77664 17.1153 5.47905C17.1155 5.64584 17.0841 5.81104 17.023 5.96517C16.9618 6.1193 16.872 6.25935 16.7588 6.37729C16.6456 6.49523 16.5111 6.58874 16.3632 6.65247C16.2152 6.7162 16.0566 6.7489 15.8965 6.74869Z" fill="white"/>
</svg>
