<svg width="14" height="14" viewBox="0 0 14 14" fill="none" xmlns="http://www.w3.org/2000/svg">
<g id="bx:bxs-star">
<path id="Vector" d="M12.8023 5.35442C12.7656 5.24643 12.6982 5.15154 12.6082 5.08146C12.5182 5.01138 12.4097 4.96919 12.296 4.96009L8.9704 4.69584L7.53132 1.51026C7.48548 1.40766 7.41094 1.32051 7.31668 1.25934C7.22241 1.19817 7.11246 1.16559 7.00009 1.16553C6.88772 1.16547 6.77773 1.19793 6.6834 1.25899C6.58907 1.32006 6.51442 1.40712 6.46848 1.50968L5.0294 4.69584L1.70382 4.96009C1.59208 4.96894 1.48526 5.0098 1.39614 5.07777C1.30702 5.14574 1.23936 5.23795 1.20127 5.34336C1.16318 5.44877 1.15626 5.56293 1.18135 5.67217C1.20644 5.78141 1.26247 5.88111 1.34273 5.95934L3.80031 8.35509L2.93115 12.1188C2.90476 12.2327 2.91322 12.3519 2.95543 12.461C2.99764 12.57 3.07165 12.6639 3.16787 12.7303C3.26408 12.7968 3.37805 12.8328 3.49499 12.8337C3.61193 12.8346 3.72643 12.8003 3.82365 12.7353L6.9999 10.6178L10.1761 12.7353C10.2755 12.8013 10.3927 12.8353 10.5119 12.8327C10.6312 12.83 10.7468 12.791 10.8431 12.7207C10.9395 12.6505 11.0121 12.5524 11.051 12.4396C11.09 12.3269 11.0935 12.205 11.0611 12.0902L9.99415 8.35684L12.6401 5.97568C12.8134 5.81934 12.877 5.57551 12.8023 5.35442Z" fill="#FF7A00"/>
</g>
</svg>
