<svg width="259" height="45" viewBox="0 0 259 45" fill="none" xmlns="http://www.w3.org/2000/svg">
<path d="M19 0H259L239 45H0L19 0Z" fill="#006DAB"/>
<path d="M41.494 16.4H47.218C48.586 16.4 49.792 16.664 50.836 17.192C51.892 17.708 52.708 18.44 53.284 19.388C53.872 20.336 54.166 21.44 54.166 22.7C54.166 23.96 53.872 25.064 53.284 26.012C52.708 26.96 51.892 27.698 50.836 28.226C49.792 28.742 48.586 29 47.218 29H41.494V16.4ZM47.074 26.606C48.334 26.606 49.336 26.258 50.08 25.562C50.836 24.854 51.214 23.9 51.214 22.7C51.214 21.5 50.836 20.552 50.08 19.856C49.336 19.148 48.334 18.794 47.074 18.794H44.41V26.606H47.074ZM56.1671 19.316H58.9751V29H56.1671V19.316ZM57.5711 17.966C57.0551 17.966 56.6351 17.816 56.3111 17.516C55.9871 17.216 55.8251 16.844 55.8251 16.4C55.8251 15.956 55.9871 15.584 56.3111 15.284C56.6351 14.984 57.0551 14.834 57.5711 14.834C58.0871 14.834 58.5071 14.978 58.8311 15.266C59.1551 15.554 59.3171 15.914 59.3171 16.346C59.3171 16.814 59.1551 17.204 58.8311 17.516C58.5071 17.816 58.0871 17.966 57.5711 17.966ZM64.8392 29.144C64.0352 29.144 63.2492 29.048 62.4812 28.856C61.7132 28.652 61.1012 28.4 60.6452 28.1L61.5812 26.084C62.0132 26.36 62.5352 26.588 63.1472 26.768C63.7592 26.936 64.3592 27.02 64.9472 27.02C66.1352 27.02 66.7292 26.726 66.7292 26.138C66.7292 25.862 66.5672 25.664 66.2432 25.544C65.9192 25.424 65.4212 25.322 64.7492 25.238C63.9572 25.118 63.3032 24.98 62.7872 24.824C62.2712 24.668 61.8212 24.392 61.4372 23.996C61.0652 23.6 60.8792 23.036 60.8792 22.304C60.8792 21.692 61.0532 21.152 61.4012 20.684C61.7612 20.204 62.2772 19.832 62.9492 19.568C63.6332 19.304 64.4372 19.172 65.3612 19.172C66.0452 19.172 66.7232 19.25 67.3952 19.406C68.0792 19.55 68.6432 19.754 69.0872 20.018L68.1512 22.016C67.2992 21.536 66.3692 21.296 65.3612 21.296C64.7612 21.296 64.3112 21.38 64.0112 21.548C63.7112 21.716 63.5612 21.932 63.5612 22.196C63.5612 22.496 63.7232 22.706 64.0472 22.826C64.3712 22.946 64.8872 23.06 65.5952 23.168C66.3872 23.3 67.0352 23.444 67.5392 23.6C68.0432 23.744 68.4812 24.014 68.8532 24.41C69.2252 24.806 69.4112 25.358 69.4112 26.066C69.4112 26.666 69.2312 27.2 68.8712 27.668C68.5112 28.136 67.9832 28.502 67.2872 28.766C66.6032 29.018 65.7872 29.144 64.8392 29.144ZM75.8237 29.144C74.7917 29.144 73.8617 28.934 73.0337 28.514C72.2177 28.082 71.5757 27.488 71.1077 26.732C70.6517 25.976 70.4237 25.118 70.4237 24.158C70.4237 23.198 70.6517 22.34 71.1077 21.584C71.5757 20.828 72.2177 20.24 73.0337 19.82C73.8617 19.388 74.7917 19.172 75.8237 19.172C76.8437 19.172 77.7317 19.388 78.4877 19.82C79.2557 20.24 79.8137 20.846 80.1617 21.638L77.9837 22.808C77.4797 21.92 76.7537 21.476 75.8057 21.476C75.0737 21.476 74.4677 21.716 73.9877 22.196C73.5077 22.676 73.2677 23.33 73.2677 24.158C73.2677 24.986 73.5077 25.64 73.9877 26.12C74.4677 26.6 75.0737 26.84 75.8057 26.84C76.7657 26.84 77.4917 26.396 77.9837 25.508L80.1617 26.696C79.8137 27.464 79.2557 28.064 78.4877 28.496C77.7317 28.928 76.8437 29.144 75.8237 29.144ZM86.2634 29.144C85.2434 29.144 84.3254 28.934 83.5094 28.514C82.7054 28.082 82.0754 27.488 81.6194 26.732C81.1634 25.976 80.9354 25.118 80.9354 24.158C80.9354 23.198 81.1634 22.34 81.6194 21.584C82.0754 20.828 82.7054 20.24 83.5094 19.82C84.3254 19.388 85.2434 19.172 86.2634 19.172C87.2834 19.172 88.1954 19.388 88.9994 19.82C89.8034 20.24 90.4334 20.828 90.8894 21.584C91.3454 22.34 91.5734 23.198 91.5734 24.158C91.5734 25.118 91.3454 25.976 90.8894 26.732C90.4334 27.488 89.8034 28.082 88.9994 28.514C88.1954 28.934 87.2834 29.144 86.2634 29.144ZM86.2634 26.84C86.9834 26.84 87.5714 26.6 88.0274 26.12C88.4954 25.628 88.7294 24.974 88.7294 24.158C88.7294 23.342 88.4954 22.694 88.0274 22.214C87.5714 21.722 86.9834 21.476 86.2634 21.476C85.5434 21.476 84.9494 21.722 84.4814 22.214C84.0134 22.694 83.7794 23.342 83.7794 24.158C83.7794 24.974 84.0134 25.628 84.4814 26.12C84.9494 26.6 85.5434 26.84 86.2634 26.84ZM102.799 19.316L98.7126 29H95.8146L91.7466 19.316H94.6446L97.3266 25.904L100.099 19.316H102.799ZM113.167 24.194C113.167 24.23 113.149 24.482 113.113 24.95H105.787C105.919 25.55 106.231 26.024 106.723 26.372C107.215 26.72 107.827 26.894 108.559 26.894C109.063 26.894 109.507 26.822 109.891 26.678C110.287 26.522 110.653 26.282 110.989 25.958L112.483 27.578C111.571 28.622 110.239 29.144 108.487 29.144C107.395 29.144 106.429 28.934 105.589 28.514C104.749 28.082 104.101 27.488 103.645 26.732C103.189 25.976 102.961 25.118 102.961 24.158C102.961 23.21 103.183 22.358 103.627 21.602C104.083 20.834 104.701 20.24 105.481 19.82C106.273 19.388 107.155 19.172 108.127 19.172C109.075 19.172 109.933 19.376 110.701 19.784C111.469 20.192 112.069 20.78 112.501 21.548C112.945 22.304 113.167 23.186 113.167 24.194ZM108.145 21.296C107.509 21.296 106.975 21.476 106.543 21.836C106.111 22.196 105.847 22.688 105.751 23.312H110.521C110.425 22.7 110.161 22.214 109.729 21.854C109.297 21.482 108.769 21.296 108.145 21.296ZM117.718 20.594C118.054 20.126 118.504 19.772 119.068 19.532C119.644 19.292 120.304 19.172 121.048 19.172V21.764C120.736 21.74 120.526 21.728 120.418 21.728C119.614 21.728 118.984 21.956 118.528 22.412C118.072 22.856 117.844 23.528 117.844 24.428V29H115.036V19.316H117.718V20.594ZM134.132 28.532C133.856 28.736 133.514 28.892 133.106 29C132.71 29.096 132.29 29.144 131.846 29.144C130.694 29.144 129.8 28.85 129.164 28.262C128.54 27.674 128.228 26.81 128.228 25.67V21.692H126.734V19.532H128.228V17.174H131.036V19.532H133.448V21.692H131.036V25.634C131.036 26.042 131.138 26.36 131.342 26.588C131.558 26.804 131.858 26.912 132.242 26.912C132.686 26.912 133.064 26.792 133.376 26.552L134.132 28.532ZM141.594 19.172C142.794 19.172 143.76 19.532 144.492 20.252C145.236 20.972 145.608 22.04 145.608 23.456V29H142.8V23.888C142.8 23.12 142.632 22.55 142.296 22.178C141.96 21.794 141.474 21.602 140.838 21.602C140.13 21.602 139.566 21.824 139.146 22.268C138.726 22.7 138.516 23.348 138.516 24.212V29H135.708V15.644H138.516V20.324C138.888 19.952 139.338 19.67 139.866 19.478C140.394 19.274 140.97 19.172 141.594 19.172ZM157.745 24.194C157.745 24.23 157.727 24.482 157.691 24.95H150.365C150.497 25.55 150.809 26.024 151.301 26.372C151.793 26.72 152.405 26.894 153.137 26.894C153.641 26.894 154.085 26.822 154.469 26.678C154.865 26.522 155.231 26.282 155.567 25.958L157.061 27.578C156.149 28.622 154.817 29.144 153.065 29.144C151.973 29.144 151.007 28.934 150.167 28.514C149.327 28.082 148.679 27.488 148.223 26.732C147.767 25.976 147.539 25.118 147.539 24.158C147.539 23.21 147.761 22.358 148.205 21.602C148.661 20.834 149.279 20.24 150.059 19.82C150.851 19.388 151.733 19.172 152.705 19.172C153.653 19.172 154.511 19.376 155.279 19.784C156.047 20.192 156.647 20.78 157.079 21.548C157.523 22.304 157.745 23.186 157.745 24.194ZM152.723 21.296C152.087 21.296 151.553 21.476 151.121 21.836C150.689 22.196 150.425 22.688 150.329 23.312H155.099C155.003 22.7 154.739 22.214 154.307 21.854C153.875 21.482 153.347 21.296 152.723 21.296ZM167.394 20.594C167.73 20.126 168.18 19.772 168.744 19.532C169.32 19.292 169.98 19.172 170.724 19.172V21.764C170.412 21.74 170.202 21.728 170.094 21.728C169.29 21.728 168.66 21.956 168.204 22.412C167.748 22.856 167.52 23.528 167.52 24.428V29H164.712V19.316H167.394V20.594ZM176.247 19.172C177.747 19.172 178.899 19.532 179.703 20.252C180.507 20.96 180.909 22.034 180.909 23.474V29H178.281V27.794C177.753 28.694 176.769 29.144 175.329 29.144C174.585 29.144 173.937 29.018 173.385 28.766C172.845 28.514 172.431 28.166 172.143 27.722C171.855 27.278 171.711 26.774 171.711 26.21C171.711 25.31 172.047 24.602 172.719 24.086C173.403 23.57 174.453 23.312 175.869 23.312H178.101C178.101 22.7 177.915 22.232 177.543 21.908C177.171 21.572 176.613 21.404 175.869 21.404C175.353 21.404 174.843 21.488 174.339 21.656C173.847 21.812 173.427 22.028 173.079 22.304L172.071 20.342C172.599 19.97 173.229 19.682 173.961 19.478C174.705 19.274 175.467 19.172 176.247 19.172ZM176.031 27.254C176.511 27.254 176.937 27.146 177.309 26.93C177.681 26.702 177.945 26.372 178.101 25.94V24.95H176.175C175.023 24.95 174.447 25.328 174.447 26.084C174.447 26.444 174.585 26.732 174.861 26.948C175.149 27.152 175.539 27.254 176.031 27.254ZM189.336 19.172C190.536 19.172 191.502 19.532 192.234 20.252C192.978 20.972 193.35 22.04 193.35 23.456V29H190.542V23.888C190.542 23.12 190.374 22.55 190.038 22.178C189.702 21.794 189.216 21.602 188.58 21.602C187.872 21.602 187.308 21.824 186.888 22.268C186.468 22.7 186.258 23.348 186.258 24.212V29H183.45V19.316H186.132V20.45C186.504 20.042 186.966 19.73 187.518 19.514C188.07 19.286 188.676 19.172 189.336 19.172ZM205.991 19.316V27.38C205.991 29.156 205.529 30.476 204.605 31.34C203.681 32.204 202.331 32.636 200.555 32.636C199.619 32.636 198.731 32.522 197.891 32.294C197.051 32.066 196.355 31.736 195.803 31.304L196.919 29.288C197.327 29.624 197.843 29.888 198.467 30.08C199.091 30.284 199.715 30.386 200.339 30.386C201.311 30.386 202.025 30.164 202.481 29.72C202.949 29.288 203.183 28.628 203.183 27.74V27.326C202.451 28.13 201.431 28.532 200.123 28.532C199.235 28.532 198.419 28.34 197.675 27.956C196.943 27.56 196.361 27.008 195.929 26.3C195.497 25.592 195.281 24.776 195.281 23.852C195.281 22.928 195.497 22.112 195.929 21.404C196.361 20.696 196.943 20.15 197.675 19.766C198.419 19.37 199.235 19.172 200.123 19.172C201.527 19.172 202.595 19.634 203.327 20.558V19.316H205.991ZM200.681 26.228C201.425 26.228 202.031 26.012 202.499 25.58C202.979 25.136 203.219 24.56 203.219 23.852C203.219 23.144 202.979 22.574 202.499 22.142C202.031 21.698 201.425 21.476 200.681 21.476C199.937 21.476 199.325 21.698 198.845 22.142C198.365 22.574 198.125 23.144 198.125 23.852C198.125 24.56 198.365 25.136 198.845 25.58C199.325 26.012 199.937 26.228 200.681 26.228ZM218.091 24.194C218.091 24.23 218.073 24.482 218.037 24.95H210.711C210.843 25.55 211.155 26.024 211.647 26.372C212.139 26.72 212.751 26.894 213.483 26.894C213.987 26.894 214.431 26.822 214.815 26.678C215.211 26.522 215.577 26.282 215.913 25.958L217.407 27.578C216.495 28.622 215.163 29.144 213.411 29.144C212.319 29.144 211.353 28.934 210.513 28.514C209.673 28.082 209.025 27.488 208.569 26.732C208.113 25.976 207.885 25.118 207.885 24.158C207.885 23.21 208.107 22.358 208.551 21.602C209.007 20.834 209.625 20.24 210.405 19.82C211.197 19.388 212.079 19.172 213.051 19.172C213.999 19.172 214.857 19.376 215.625 19.784C216.393 20.192 216.993 20.78 217.425 21.548C217.869 22.304 218.091 23.186 218.091 24.194ZM213.069 21.296C212.433 21.296 211.899 21.476 211.467 21.836C211.035 22.196 210.771 22.688 210.675 23.312H215.445C215.349 22.7 215.085 22.214 214.653 21.854C214.221 21.482 213.693 21.296 213.069 21.296Z" fill="white"/>
</svg>
